<svg xmlns="http://www.w3.org/2000/svg" width="1200" height="276" viewBox="0 0 1200 276" role="img" aria-labelledby="title desc"><title id="title">Cristian Bravo · Full Stack Developer · Ecuador</title><desc id="desc">Cristian Bravo, creador de CYSTEMS en Ecuador. Full Stack Developer. Web y APIs, automatización e IA aplicada. Versión estática sin animaciones.</desc><defs><style>text{font-family:Segoe UI,Arial,sans-serif}.mono{font-family:Consolas,'Courier New',monospace}</style></defs><rect x="1" y="1" width="1198" height="274" rx="24" fill="#0b1220" stroke="#26364c" stroke-width="2" /><path d="M784 1v274" fill="none" stroke="#26364c" /><rect x="40" y="34" width="39" height="30" rx="8" fill="#91f5ce" /><text x="59" y="55" font-size="17" fill="#0b1220" text-anchor="middle" font-weight="800">cb.</text><text x="94" y="56" font-size="15" fill="#9caec2" letter-spacing="2.4" class="mono">CYSTEMS / ECUADOR</text><text x="38" y="148" font-size="76" fill="#eef4f8" font-weight="750" letter-spacing="-3">Cristian <tspan fill="#91f5ce">Bravo</tspan><tspan fill="#c5b8ff">.</tspan></text><text x="42" y="196" font-size="23" fill="#d4dfec" letter-spacing="2" class="mono">FULL STACK DEVELOPER</text><text x="42" y="240" font-size="27" fill="#91f5ce" font-weight="600" class="mono">›</text><text x="72" y="240" font-size="21" fill="#9caec2" class="typed-static mono">Web &amp; APIs · Automatización · IA aplicada</text><g transform="translate(0 0)" aria-hidden="true"><g fill="none"><circle cx="991" cy="137" r="100" stroke="#26364c" stroke-width="1.5" /><circle cx="991" cy="137" r="73" stroke="#26364c" stroke-dasharray="3 9" /><path d="M877 80h48v57h66v59h118" stroke="#406358" stroke-width="1.5" /><path d="M877 80h48v57h66v59h118" stroke="#91f5ce" stroke-width="3" stroke-dasharray="10 20" class="signal" /></g><g class="orbit-outer"><path d="M991 37a100 100 0 0 1 86.6 50" fill="none" stroke="#c5b8ff" stroke-width="2.5" stroke-linecap="round" stroke-opacity=".6" /><circle cx="991" cy="37" r="6" fill="#c5b8ff" /><circle cx="991" cy="237" r="5" fill="#91f5ce" /></g><g class="orbit-inner"><path d="M918 137a73 73 0 0 1 36.5-63.22" fill="none" stroke="#91f5ce" stroke-width="2" stroke-opacity=".65" stroke-linecap="round" /><circle cx="918" cy="137" r="4" fill="#91f5ce" /><circle cx="1064" cy="137" r="3.5" fill="#f5c98b" /></g><g class="core"><rect x="945" y="91" width="92" height="92" rx="21" fill="#142334" stroke="#4c7e69" stroke-width="1.5" /><rect x="951" y="97" width="80" height="80" rx="16" fill="none" stroke="#91f5ce" stroke-opacity=".12" /><text x="991" y="151" font-size="37" fill="#91f5ce" text-anchor="middle" font-weight="650" class="mono">&lt;/&gt;</text></g><rect x="845" y="64" width="64" height="32" rx="9" fill="#1c2035" stroke="#4d4565" /><text x="877" y="85" font-size="13" fill="#c5b8ff" text-anchor="middle" class="mono">BUILD</text><rect x="1079" y="180" width="61" height="32" rx="9" fill="#25251f" stroke="#5c543c" /><text x="1109" y="201" font-size="13" fill="#f5c98b" text-anchor="middle" class="mono">SHIP</text></g></svg>
