<svg xmlns="http://www.w3.org/2000/svg" width="1200" height="276" viewBox="0 0 1200 276" role="img" aria-labelledby="title"><title id="title">Cristian Bravo · Full Stack Developer · Ecuador</title><style>text{font-family:Segoe UI,Arial,sans-serif}.mono{font-family:Consolas,monospace}.signal{stroke-dasharray:5 14;animation:none}@keyframes flow{to{stroke-dashoffset:-190}}@media(prefers-reduced-motion:reduce){.signal{animation:none}}</style><rect x="1" y="1" width="1198" height="274" rx="24" fill="#0b1220" stroke="#26364c" stroke-width="2"/>
<path d="M784 1v274" stroke="#26364c"/><rect x="40" y="34" width="39" height="30" rx="8" fill="#91f5ce"/><text x="59" y="55" text-anchor="middle" font-size="17" font-weight="800" fill="#0b1220">cb.</text><text x="94" y="56" class="mono" font-size="15" letter-spacing="2.4" fill="#9caec2">CYSTEMS / ECUADOR</text>
<text x="38" y="148" font-size="76" font-weight="750" letter-spacing="-3" fill="#eef4f8">Cristian <tspan fill="#91f5ce">Bravo</tspan><tspan fill="#c5b8ff">.</tspan></text><text x="42" y="196" class="mono" font-size="23" letter-spacing="2" fill="#d4dfec">FULL STACK DEVELOPER</text><text x="42" y="239" font-size="20" fill="#9caec2">Interfaces, APIs y automatización. De la idea al despliegue.</text>
<g fill="none"><circle cx="991" cy="137" r="100" stroke="#26364c"/><circle cx="991" cy="137" r="73" stroke="#26364c" stroke-dasharray="3 9"/><path d="M877 80h48v57h66v59h118" stroke="#406358"/><path class="signal" d="M877 80h48v57h66v59h118" stroke="#91f5ce" stroke-width="2"/></g><rect x="945" y="91" width="92" height="92" rx="21" fill="#142334" stroke="#4c7e69"/><text x="991" y="151" text-anchor="middle" class="mono" font-size="37" font-weight="650" fill="#91f5ce">&lt;/&gt;</text><rect x="845" y="64" width="64" height="32" rx="9" fill="#1c2035" stroke="#4d4565"/><text x="877" y="85" text-anchor="middle" class="mono" font-size="13" fill="#c5b8ff">BUILD</text><rect x="1079" y="180" width="61" height="32" rx="9" fill="#25251f" stroke="#5c543c"/><text x="1109" y="201" text-anchor="middle" class="mono" font-size="13" fill="#f5c98b">SHIP</text><circle cx="991" cy="37" r="4" fill="#c5b8ff"/><circle cx="991" cy="237" r="4" fill="#91f5ce"/></svg>